<?xml version="1.0" standalone="no"?>
<!DOCTYPE svg PUBLIC "-//W3C//DTD SVG 20010904//EN"
 "http://www.w3.org/TR/2001/REC-SVG-20010904/DTD/svg10.dtd">
<svg version="1.0" xmlns="http://www.w3.org/2000/svg"
 width="260.000000pt" height="260.000000pt" viewBox="0 0 260.000000 260.000000"
 preserveAspectRatio="xMidYMid meet">
<metadata>
Created by potrace 1.14, written by Peter Selinger 2001-2017
</metadata>
<g transform="translate(0.000000,260.000000) scale(0.100000,-0.100000)"
fill="#000000" stroke="none">
<path d="M1205 2574 c-27 -15 -117 -65 -200 -112 -82 -47 -159 -90 -170 -96
-191 -105 -600 -344 -619 -362 -45 -45 -60 -92 -62 -194 -2 -52 -4 -320 -5
-595 -2 -397 0 -505 10 -525 37 -70 71 -97 243 -195 35 -20 573 -336 588 -346
83 -52 249 -139 269 -140 49 -2 86 3 116 15 17 7 143 77 280 156 138 78 270
154 295 168 25 14 87 49 138 78 52 30 95 54 97 54 3 0 46 25 97 56 100 59 119
77 148 140 18 38 20 75 22 630 4 726 27 645 -227 793 -77 45 -147 86 -155 91
-31 18 -227 133 -265 155 -22 13 -125 73 -230 135 -179 105 -194 112 -255 116
-57 5 -71 2 -115 -22z"/>
</g>
</svg>
